<svg xmlns="http://www.w3.org/2000/svg" width="256" height="360" viewBox="0 0 256 360">
  <path id="패스_5" data-name="패스 5" d="M163.2,112.938a12.873,12.873,0,0,0,6.6-6.067,131.29,131.29,0,0,0,5.276-12.37c4.078-10.944,9.057-21.5,13.732-32.192,3.777-8.637,7.706-17.21,11.141-25.991a20.976,20.976,0,0,1,3.868-6.548,7.684,7.684,0,0,1,8.606-2.323c6.286,1.964,8.893,6.878,6.854,13.112-5.83,17.819-11.507,35.692-17.629,53.41-4.076,11.794-8.8,23.36-13.246,35.028-1.058,2.773-.785,5.044.8,6.336,1.792,1.464,4.346,1.333,6.835-.29a9.511,9.511,0,0,0,2.654-2.708c2.725-4,5.463-7.994,8.168-12.01a36.5,36.5,0,0,1,7.548-8.365,85.578,85.578,0,0,0,12.781-13.112q6.3-7.686,12.768-15.232c2.257-2.623,5.19-4.064,8.711-3.353a9.1,9.1,0,0,1,6.909,5.893,7.632,7.632,0,0,1-.481,5.938,34.825,34.825,0,0,1-3.606,6.025c-10.677,15.355-21.1,30.891-32.339,45.846a59.048,59.048,0,0,0-9.72,19.255c-1.246,4.317-12.632,45.745-14.32,50.491-4.048,12.307-12.606,24.171-14.006,26.844a34.879,34.879,0,0,1-4.757,7.273c-.695.895-1.634,2.116-2.642,3.61-4.9,7.262-.044,106.7-2.976,107.811-19.107.962-44.79.86-63.935.557-5.341-.084-3.351-101.152-10.158-108.5-2.213-6.66-6.6-11.722-11.155-16.763-8.06-8.927-15.992-17.971-24.143-26.813-4.315-4.681-7.221-10.214-10.369-15.621-3.511-6.032-6.995-12.077-10.82-17.923a33.257,33.257,0,0,0-9.074-9.372c-7.149-4.91-14.32-9.78-21.758-14.244a30.8,30.8,0,0,0-4.615-2.388A8.812,8.812,0,0,1,2,146.474c-2.29-2.074-2.713-4.836-.794-7.243,5.542-6.962,12.453-10.667,21.662-8.83,8.614,1.719,16.053,5.834,23.018,10.963,6.49,4.781,12.383,10.3,18.722,15.271a47.42,47.42,0,0,0,8.775,5.831q7,3.322,12.374-2.309a23.926,23.926,0,0,0,5.58-10.243c3.358-11.841,5.161-23.876,4.2-36.227-1.59-20.458-3.158-40.92-5.341-61.322-.8-7.493-1.849-14.959-2.135-22.5a35.993,35.993,0,0,1,.108-6.1c.732-5.492,3.543-9.464,8.8-11.5a7.892,7.892,0,0,1,9.946,3.709,16.585,16.585,0,0,1,1.548,4.779c3.718,17.953,7.8,35.841,10.64,53.96,1.641,10.461,2.822,20.993,4.2,31.493a5.46,5.46,0,0,0,4.694,4.873c3.253.506,5.65-.551,6.872-3.034a16.84,16.84,0,0,0,1.2-4.253c2.328-11.687,4.471-23.417,7.005-35.061,4.142-19.035,9.881-37.634,16-56.116a22.583,22.583,0,0,1,6.387-9.92,10.986,10.986,0,0,1,15.709,1.386,6.872,6.872,0,0,1,1.505,5.863c-5.361,26.872-10.255,53.833-15.341,80.754q-1.943,10.284-3.851,20.574C163.4,111.712,163.334,112.155,163.2,112.938Z" transform="translate(0.006 -0.017)" fill="#fde0d5"/>
</svg>
