<svg xmlns="http://www.w3.org/2000/svg" width="13.025" height="13.025" viewBox="0 0 13.025 13.025">
  <path id="패스_80" data-name="패스 80" d="M9.824,17.717a2.908,2.908,0,0,1-.526.346.509.509,0,0,1-.432-.025A.546.546,0,0,1,8.7,17.6a2.379,2.379,0,0,1,.275-.583,3.911,3.911,0,0,0,.371-.763c.08-.322-.187-.552-.515-.506-.1.015-.209.038-.312.063-.492.118-.7-.011-.875-.556a.791.791,0,0,1,.472-.884,1.961,1.961,0,0,1,.282-.025c.52-.1,1.088-.005,1.534-.4a.494.494,0,0,1,.227-.044c-.3-.309-.605-.608-.884-.933a4.067,4.067,0,0,1-.411-.637c-.094-.165-.15-.353-.25-.514a.489.489,0,0,1,.125-.683.383.383,0,0,1,.592.057c.324.349.626.719.926,1.09.259.32.471.68.9.812.173.053.339.2.48-.005A.555.555,0,0,0,11.7,12.4c-.384-.512-.778-1.017-1.172-1.522a1.588,1.588,0,0,1-.4-1.186,1.556,1.556,0,0,1,.186-.421,1.391,1.391,0,0,1,.43.218,4.04,4.04,0,0,1,.9,1.484,1.483,1.483,0,0,0,.865,1c-.212-.632-.439-1.245-.618-1.871a5.407,5.407,0,0,1-.152-1.042.349.349,0,0,1,.142-.289.5.5,0,0,1,.338.116,2.548,2.548,0,0,1,.941,1.922c.037.344.149.448.507.438-.1-.373-.207-.738-.3-1.106-.068-.28-.119-.565-.171-.849a.413.413,0,0,1,0-.223c.07-.156.136-.383.259-.428s.31.1.456.181a.529.529,0,0,1,.131.188c.137-.17.262-.351.413-.5s.314-.129.362.105c.1.478.175.96.259,1.441.014.08.014.161.021.242l.091.011c.036-.272.078-.544.1-.818.016-.16,0-.322.008-.484a.678.678,0,0,1,.457-.7,4.041,4.041,0,0,0,.426-.225,2.787,2.787,0,0,1,.17.493c.08.538.123,1.082.215,1.618a.467.467,0,0,0,.279.326c.22.031.489.134.662-.151.3-.5.6-1.008.941-1.488a.823.823,0,0,1,.5-.361.626.626,0,0,1,.613.556,3.093,3.093,0,0,1-.005,1.769c-.171.425-.35.847-.514,1.275-.2.525.029.636.451.518a.839.839,0,0,1,.868.2.821.821,0,0,1,.278.634,1.885,1.885,0,0,1-.552.762,9.582,9.582,0,0,1-.985.7c.329.39.615.741.914,1.079a.674.674,0,0,1,.156.817c-.217.424-.444.839-1.02.72-.132-.027-.232-.185-.363-.244-.209-.094-.433-.156-.651-.231a2.34,2.34,0,0,0,.193.659,2.15,2.15,0,0,1,.366,1.11.681.681,0,0,1-.5.694.69.69,0,0,1-.774-.564c-.067-.333-.279-.329-.492-.349,0,.575,0,1.108,0,1.641a.659.659,0,0,1-.069.246c-.095.215-.181.492-.471.432a.69.69,0,0,1-.517-.582,3.651,3.651,0,0,0-.213-.731.516.516,0,0,0-.872-.2l-.112-.125a3.566,3.566,0,0,1-.581,1.55.7.7,0,0,1-.942.132c-.227-.156-.225-.472-.132-.817a3.605,3.605,0,0,0,.042-.967.252.252,0,0,0-.165-.153.228.228,0,0,0-.148.127,3.629,3.629,0,0,1-.275.642,3.151,3.151,0,0,1-.617.612c-.232.181-.447.04-.55-.173a1.933,1.933,0,0,1-.2-.733c-.02-.434.026-.87.032-1.306a.829.829,0,0,0-.084-.253,2.027,2.027,0,0,1-.133.2,10.455,10.455,0,0,1-.782.916c-.183.175-.382.049-.4-.221a4.448,4.448,0,0,1,0-.581C9.755,18.1,9.793,17.919,9.824,17.717Zm1.718-6.062A3.513,3.513,0,0,0,10.5,9.794a.626.626,0,0,0-.028.382c.148.646.708.988,1.072,1.475l.484.758.086-.067-.574-.686Zm4.628,4.232a1.008,1.008,0,0,0,.012,1.046,1.11,1.11,0,0,1-.242,1.269.71.71,0,0,1-.454.221c-.065,0-.153-.234-.218-.368a.889.889,0,0,1-.068-.247,1.515,1.515,0,0,1,.1-1.236.37.37,0,0,0-.01-.187.4.4,0,0,0-.2.074,3.392,3.392,0,0,0-.3.663,3.227,3.227,0,0,1-.888,1.374c-.18.186-.358.373-.555.578.017.164.035.386.063.607.038.295.074.591.134.881a.314.314,0,0,0,.174.221.356.356,0,0,0,.243-.164.619.619,0,0,0,.108-.325,1.468,1.468,0,0,1,.356-1.063.638.638,0,0,1,.794-.249c.514.177.915.449.895,1.1.407-.357.728-.7.46-1.261a.554.554,0,0,1,0-.345c.092-.353.427-.514.67-.332s.446.362.683.524c.084.057.268.107.3.068a.407.407,0,0,0,.1-.341c-.147-.306-.347-.584-.508-.884-.07-.13-.172-.352-.119-.417.123-.153.338-.34.5-.327a5.176,5.176,0,0,1,.965.27c.148.042.337.13.445.074a.465.465,0,0,0,.263-.565,1.154,1.154,0,0,0-.684-.831.6.6,0,0,1-.456-.554.671.671,0,0,1,.322-.71A7.8,7.8,0,0,1,19.9,14c.352-.147.286-.445.23-.68-.029-.123-.266-.214-.425-.279-.086-.035-.219.05-.31.018a2.113,2.113,0,0,1-.666-.309c-.167-.139-.093-.362,0-.565.168-.38.318-.77.451-1.165A2.542,2.542,0,0,0,19.256,9.2a.717.717,0,0,0-.3-.344c-.049-.026-.2.138-.3.223a.437.437,0,0,0-.093.13,5.808,5.808,0,0,1-1.107,1.667c-.181.165-.3.426-.586.326a3.2,3.2,0,0,1-.578-.339c0,.038,0,.146,0,.254,0,.422.124.536.521.448a1.968,1.968,0,0,0,.466-.181.8.8,0,0,1,1.073.315c.159.314-.012.652-.447.851-.256.117-.522.211-.79.318.122.3.39.324.648.384.3.069.591.155.88.252a.3.3,0,0,1,.177.183.364.364,0,0,1-.2.222c-.375.1-.759.167-1.136.26-.2.049-.392.128-.588.194l-.006.135c.189.124.369.264.567.37a1.71,1.71,0,0,1,.909,1.17.289.289,0,0,1-.018.248.283.283,0,0,1-.2.14c-.2.064-.413.1-.61.167a.8.8,0,0,1-.888-.256C16.5,16.193,16.346,16.052,16.17,15.887Zm.659-2.577a1.087,1.087,0,0,1-.905.766,1.175,1.175,0,0,0-.551.348c-.045.047.085.275.149.414a.826.826,0,0,1,.033.656.814.814,0,0,1-.455.469.348.348,0,0,1-.323-.011.355.355,0,0,1-.177-.273c-.031-.179-.044-.361-.068-.542a.763.763,0,0,0-.645-.684c-.4-.015-.794,0-1.148,0a3.786,3.786,0,0,1-.275.9,8.282,8.282,0,0,0-.722,1.8c-.069.208-.181.455.123.617a3.173,3.173,0,0,0,1.221-1.637,1.7,1.7,0,0,1,.541-.635c.213-.193.371-.07.452.165a1.3,1.3,0,0,1-.1,1.228,3.09,3.09,0,0,0-.3.668,6.248,6.248,0,0,0-.157.61c.364-.022.44-.071.6-.378.247-.486.474-.983.741-1.457a.477.477,0,0,1,.385-.222c.136.036.256.212.337.355.042.074-.017.206-.029.312-.03.254-.069.507-.081.762a.564.564,0,0,0,.11.224c.077-.045.2-.076.22-.139a2.149,2.149,0,0,0,.091-.58,9.588,9.588,0,0,1-.019-1.206c.06-.435.434-.57.818-.361.345.188.688.382,1.038.559a.307.307,0,0,0,.251-.007.3.3,0,0,0,.012-.224.418.418,0,0,0-.123-.215c-.314-.247-.627-.5-.961-.716-.212-.138-.4-.267-.324-.55a.573.573,0,0,1,.532-.428c.25-.034.5-.071.748-.124a.912.912,0,0,0,.244-.162l-1.275-.3Zm-3.22-4.368L13.475,9a2.233,2.233,0,0,0,.053.65,8.948,8.948,0,0,1,.582,2.165c.043.338-.139.612-.436.565-.64-.1-.723-.057-.959.507l-.3.04c.172.469.138.51-.3.711a8.946,8.946,0,0,0-1.489.774,4.606,4.606,0,0,0-.838.974c-.045.057,0,.186.005.282a.7.7,0,0,0,.3-.031c.426-.278.838-.576,1.259-.861.3-.2.608-.4.955-.621,0,.037,0-.015-.006-.067-.022-.433.119-.6.553-.57a2.241,2.241,0,0,1,.593.187c.118.044.223.126.342.161a.3.3,0,0,0,.3-.034.306.306,0,0,0,.12-.283,5.1,5.1,0,0,1,.01-.772c.079-.421.217-.831.317-1.249a.625.625,0,0,0-.013-.323c-.205-.625-.414-1.25-.641-1.867A1.9,1.9,0,0,0,13.609,8.942Zm2.942,3.939a2.426,2.426,0,0,1,.5-.382c.273-.111.581-.132.853-.245a.419.419,0,0,0,.175-.358.375.375,0,0,0-.307-.212,6.6,6.6,0,0,0-.972.251c-.5.158-.812-.057-.795-.593.021-.647.086-1.292.113-1.938a2.577,2.577,0,0,0-.084-.523l-.164.006c-.033.368-.062.736-.1,1.1a.533.533,0,0,1-.068.234,3.617,3.617,0,0,0-.381,2.927C15.733,12.966,16.128,12.675,16.551,12.881Zm-4.835,5.2c-.118.479-.229.92-.332,1.363a.434.434,0,0,0,0,.254c.061.138.134.339.242.369a.527.527,0,0,0,.454-.128,1.413,1.413,0,0,0,.378-.685,1.476,1.476,0,0,1,.293-.7c.165-.244.27-.268.448.012.035-.181.051-.318.089-.449.147-.511.331-1.013.437-1.531.053-.26.233-.564-.037-.863a3.293,3.293,0,0,0-.612,1.2,1.242,1.242,0,0,1-.231.446C12.508,17.7,12.2,18.095,11.716,18.081Zm-.446-.74c.308-.694.618-1.381.917-2.073a.908.908,0,0,0,.076-.4.6.6,0,0,0-.163-.23.922.922,0,0,0-.213.182c-.178.287-.333.588-.511.874-.112.181-.342.338-.356.52a2.794,2.794,0,0,1-.581,1.22,6.978,6.978,0,0,0-.41.789c-.03.069.041.183.066.277a.8.8,0,0,0,.273-.086.825.825,0,0,0,.174-.26q.2-.365.387-.736c.1-.193.217-.22.34-.076ZM9.654,16.028a1.541,1.541,0,0,1-.427,1.018,2.277,2.277,0,0,0-.269.66.4.4,0,0,0,.242.152,1.166,1.166,0,0,0,.672-.68,2.015,2.015,0,0,1,.9-1.167c.452-.277.585-.7.834-1.084a4.532,4.532,0,0,1-1.955,1.1Zm6.113-2.655.105-.033a.334.334,0,0,0,.1.113c.13.037.265.056.4.082a1.024,1.024,0,0,0,.049-.289.6.6,0,0,0-.377-.083,6.292,6.292,0,0,0-.72.306,1.812,1.812,0,0,0-.183.073,1.2,1.2,0,0,0-.15.12.571.571,0,0,1-.079-.188c-.007-.375,0-.751,0-1.126,0-.128-.018-.256-.032-.434a.942.942,0,0,0-.124,1.053.846.846,0,0,1,.065.5c-.055.443-.472.517-.768.7l.582.491,1.225-.933Zm-6.482-1.89-.128-.013c-.047.167-.159.349-.127.5a1.412,1.412,0,0,0,.529.883c.455.335.89.7,1.367,1.076l.507-.317C10.216,13.326,9.928,12.231,9.285,11.482ZM9.361,15.6,10,14.317c-.584.179-1.177.353-1.765.542-.281.09-.308.273-.1.493a1.385,1.385,0,0,1,.158.283c.373-.131.752-.3,1.072-.035Zm3.665-3.557c.13.014.334.044.54.055a1.6,1.6,0,0,0,.3-.041l-.09-.486a.32.32,0,0,0-.159.04c-.1.236-.208.11-.309.014a2.115,2.115,0,0,1-.648-1.218A6.012,6.012,0,0,0,12.3,9.33a.44.44,0,0,0-.209-.1.545.545,0,0,0-.071.225,2.556,2.556,0,0,0,.145.489c.28.7.568,1.393.856,2.1Zm1.507-2.891a3.14,3.14,0,0,0,.33,2.155l.107,0,.209-.608C14.536,10.322,14.742,9.662,14.533,9.153ZM16.35,15.58l-.064.1a9.018,9.018,0,0,0,.7.66.525.525,0,0,0,.674-.1Zm-1.2.109a1.82,1.82,0,0,0,.181-.613c-.01-.148-.2-.284-.346-.468a.9.9,0,0,0,.165,1.081ZM16.8,19.8l-.109-.043a5.754,5.754,0,0,0-.44.582c-.036.061.051.2.081.3.089-.028.236-.034.256-.088.09-.241.144-.5.212-.747ZM12.57,14.146c.289.082.545.168.808-.148l-.645-.215ZM17.638,18.7c.082.469.2.592.51.539a.883.883,0,0,0,.3-.213l-.05-.108C18.082,19.18,17.878,18.988,17.638,18.7Z" transform="translate(-7.623 -8.078)"/>
</svg>
