<svg xmlns="http://www.w3.org/2000/svg" width="15.775" height="20.508" viewBox="0 0 15.775 20.508">
  <path id="Icon_ionic-ios-water" data-name="Icon ionic-ios-water" d="M19.37,8.226a22.045,22.045,0,0,0-4.476-4.762.422.422,0,0,0-.513,0A21.775,21.775,0,0,0,9.92,8.216a14.954,14.954,0,0,0-3.165,8.425c0,.059,0,.123,0,.182a6.443,6.443,0,0,0,.537,2.568,6.927,6.927,0,0,0,.749,1.3,8.138,8.138,0,0,0,6.6,3.194c4.358,0,7.892-3.16,7.892-7.059A15.012,15.012,0,0,0,19.37,8.226Zm-4.24,13.029h-.025a.432.432,0,0,1-.128-.843,6.138,6.138,0,0,0,4.259-3.983.429.429,0,0,1,.828.153v.069A4.783,4.783,0,0,1,15.131,21.255Z" transform="translate(-6.75 -3.374)" fill="#193f6e"/>
</svg>
