<svg xmlns="http://www.w3.org/2000/svg" width="22" height="22" viewBox="0 0 22 22">
  <g id="Icon_feather-settings" data-name="Icon feather-settings" transform="translate(-2.273 -2.496)">
    <path id="패스_33" data-name="패스 33" d="M19.9,15.5a1.65,1.65,0,0,0,.33,1.82l.06.06a2,2,0,1,1-2.83,2.83l-.06-.06a1.663,1.663,0,0,0-2.82,1.18v.17a2,2,0,1,1-4,0v-.09A1.65,1.65,0,0,0,9.5,19.9a1.65,1.65,0,0,0-1.82.33l-.06.06a2,2,0,1,1-2.83-2.83l.06-.06a1.663,1.663,0,0,0-1.18-2.82H3.5a2,2,0,0,1,0-4h.09A1.65,1.65,0,0,0,5.1,9.5a1.65,1.65,0,0,0-.33-1.82l-.06-.06A2,2,0,1,1,7.54,4.79l.06.06a1.65,1.65,0,0,0,1.82.33H9.5a1.65,1.65,0,0,0,1-1.51V3.5a2,2,0,0,1,4,0v.09a1.663,1.663,0,0,0,2.82,1.18l.06-.06a2,2,0,1,1,2.83,2.83l-.06.06a1.65,1.65,0,0,0-.33,1.82V9.5a1.65,1.65,0,0,0,1.51,1h.17a2,2,0,1,1,0,4h-.09A1.65,1.65,0,0,0,19.9,15.5Z" transform="translate(0.773 0.996)" fill="#cdcdcd"/>
    <g id="패스_32" data-name="패스 32" transform="translate(-2.856 -2.634)" fill="#cdcdcd" stroke-linecap="round" stroke-linejoin="round">
      <path d="M 16 19.5 C 14.07009029388428 19.5 12.5 17.92991065979004 12.5 16 C 12.5 14.07009029388428 14.07009029388428 12.5 16 12.5 C 17.92991065979004 12.5 19.5 14.07009029388428 19.5 16 C 19.5 17.92991065979004 17.92991065979004 19.5 16 19.5 Z" stroke="none"/>
      <path d="M 16 13.5 C 14.61928939819336 13.5 13.5 14.61928939819336 13.5 16 C 13.5 17.38071060180664 14.61928939819336 18.5 16 18.5 C 17.38071060180664 18.5 18.5 17.38071060180664 18.5 16 C 18.5 14.61928939819336 17.38071060180664 13.5 16 13.5 M 16 11.5 C 18.48130989074707 11.5 20.5 13.51869010925293 20.5 16 C 20.5 18.48130989074707 18.48130989074707 20.5 16 20.5 C 13.51869010925293 20.5 11.5 18.48130989074707 11.5 16 C 11.5 13.51869010925293 13.51869010925293 11.5 16 11.5 Z" stroke="none" fill="#fff"/>
    </g>
  </g>
</svg>
